<svg width="24" height="24" viewBox="0 0 24 24" fill="none" xmlns="http://www.w3.org/2000/svg">
<path d="M12 22C17.5228 22 22 17.5228 22 12C22 6.47715 17.5228 2 12 2C6.47715 2 2 6.47715 2 12C2 17.5228 6.47715 22 12 22Z" stroke="black" stroke-width="2" stroke-linecap="round" stroke-linejoin="round"/>
<path d="M12.2953 18.1591C11.7385 18.1553 11.1949 18.0587 10.6646 17.8693C10.1343 17.6762 9.65706 17.3637 9.23282 16.9318C8.80857 16.4962 8.47145 15.9186 8.22145 15.1989C7.97145 14.4754 7.84835 13.5796 7.85214 12.5114C7.85214 11.5152 7.9582 10.6269 8.17032 9.84661C8.38244 9.0663 8.68736 8.40721 9.08509 7.86933C9.48282 7.32767 9.96198 6.91479 10.5226 6.6307C11.087 6.3466 11.7177 6.20456 12.4146 6.20456C13.1457 6.20456 13.7934 6.3485 14.3578 6.63638C14.926 6.92426 15.3843 7.3182 15.7328 7.8182C16.0813 8.31441 16.2972 8.87501 16.3805 9.50001H14.3067C14.2006 9.05304 13.9828 8.69698 13.6533 8.43183C13.3275 8.16289 12.9146 8.02842 12.4146 8.02842C11.6078 8.02842 10.9866 8.3788 10.551 9.07956C10.1192 9.78032 9.90138 10.7424 9.89759 11.9659H9.97714C10.1627 11.6326 10.4033 11.3466 10.6987 11.108C10.9942 10.8693 11.3275 10.6856 11.6987 10.5568C12.0737 10.4243 12.4696 10.358 12.8862 10.358C13.568 10.358 14.1798 10.5208 14.7215 10.8466C15.2669 11.1724 15.6987 11.6212 16.0169 12.1932C16.3351 12.7614 16.4923 13.4129 16.4885 14.1477C16.4923 14.9129 16.318 15.6004 15.9658 16.2102C15.6135 16.8163 15.123 17.2936 14.4942 17.6421C13.8654 17.9905 13.1324 18.1629 12.2953 18.1591ZM12.284 16.4546C12.6968 16.4546 13.0662 16.3542 13.3919 16.1534C13.7177 15.9527 13.9752 15.6818 14.1646 15.3409C14.354 15 14.4468 14.6174 14.443 14.1932C14.4468 13.7765 14.3559 13.3996 14.1703 13.0625C13.9885 12.7254 13.7366 12.4583 13.4146 12.2614C13.0927 12.0644 12.7252 11.9659 12.3124 11.9659C12.0055 11.9659 11.7196 12.0246 11.4544 12.1421C11.1893 12.2595 10.9582 12.4224 10.7612 12.6307C10.5643 12.8352 10.409 13.0739 10.2953 13.3466C10.1855 13.6155 10.1287 13.9034 10.1249 14.2102C10.1287 14.6155 10.2233 14.9887 10.409 15.3296C10.5946 15.6705 10.8502 15.9432 11.176 16.1477C11.5018 16.3523 11.8711 16.4546 12.284 16.4546Z" fill="black"/>
</svg>
